<?xml version="1.0" standalone="no"?>
<!DOCTYPE svg PUBLIC "-//W3C//DTD SVG 20010904//EN"
 "http://www.w3.org/TR/2001/REC-SVG-20010904/DTD/svg10.dtd">
<svg version="1.0" xmlns="http://www.w3.org/2000/svg"
 width="1584.000000pt" height="396.000000pt" viewBox="0 0 1584.000000 396.000000"
 preserveAspectRatio="xMidYMid meet">

<g transform="translate(0.000000,396.000000) scale(0.100000,-0.100000)"
fill="#000000" stroke="none">
<path d="M1310 3941 c0 -36 71 -160 128 -224 76 -84 192 -179 305 -249 170
-106 374 -170 821 -258 455 -91 492 -93 956 -67 261 15 309 20 420 47 114 28
351 99 458 137 55 19 191 121 214 160 9 15 53 68 99 117 93 101 128 168 137
258 9 109 216 98 -1790 98 -1699 0 -1748 -1 -1748 -19z"/>
<path d="M15335 2755 c-80 -73 -183 -114 -305 -122 -107 -7 -174 8 -238 52
-46 31 -50 32 -108 24 -71 -10 -208 -60 -238 -88 -12 -10 -36 -26 -54 -36 -19
-9 -32 -18 -30 -20 1 -1 46 2 99 8 92 10 102 9 280 -27 101 -21 276 -60 389
-88 198 -49 209 -50 305 -44 209 13 405 87 405 153 0 30 -95 128 -165 168 -48
29 -161 63 -235 71 -43 4 -47 2 -105 -51z"/>
<path d="M14985 2774 l-60 -13 105 4 c58 2 116 8 130 13 38 16 -101 13 -175
-4z"/>
<path d="M14407 2433 c-42 -7 -129 -33 -192 -56 l-114 -43 -93 -100 c-51 -56
-117 -132 -146 -170 -29 -38 -94 -103 -145 -145 -102 -83 -112 -104 -83 -173
37 -88 155 -84 513 15 78 22 201 53 275 69 200 44 383 99 603 180 223 82 300
95 578 95 l237 0 0 155 0 156 -117 -39 c-104 -34 -133 -39 -243 -44 -119 -5
-132 -3 -270 30 -261 64 -331 75 -535 79 -132 3 -214 0 -268 -9z"/>
<path d="M5440 1965 l0 -315 35 0 35 0 0 83 c0 104 13 149 51 181 35 30 65 33
97 10 21 -14 22 -22 22 -145 l0 -129 40 0 40 0 0 135 c0 149 -9 182 -55 203
-56 26 -115 13 -167 -36 l-28 -26 0 177 0 177 -35 0 -35 0 0 -315z"/>
<path d="M4870 1945 l0 -295 40 0 40 0 0 295 0 295 -40 0 -40 0 0 -295z"/>
<path d="M7590 1945 l0 -295 40 0 40 0 0 123 c0 117 1 125 24 146 l23 22 109
-146 108 -145 49 0 c36 0 46 3 40 13 -4 6 -57 77 -118 157 -61 80 -115 151
-119 158 -5 8 33 55 109 135 l116 122 -46 3 -46 3 -124 -128 -124 -128 -1 128
0 127 -40 0 -40 0 0 -295z"/>
<path d="M15430 2013 c-96 -10 -219 -42 -465 -123 -304 -100 -369 -118 -540
-155 -66 -14 -172 -41 -235 -60 -188 -56 -321 -85 -390 -85 -108 0 -227 70
-246 146 -3 13 -9 24 -12 24 -3 0 -35 -29 -71 -64 -108 -104 -228 -196 -323
-246 -50 -26 -86 -50 -82 -53 5 -3 90 -39 189 -80 598 -249 798 -370 1177
-706 159 -141 269 -260 440 -473 l110 -138 429 0 429 0 0 1004 0 1003 -82 6
c-84 7 -264 7 -328 0z"/>
<path d="M5144 1984 c-58 -28 -72 -103 -28 -147 14 -14 48 -33 75 -42 27 -9
54 -25 59 -35 13 -24 13 -26 -6 -44 -20 -21 -83 -20 -112 0 -18 12 -26 13 -37
4 -57 -47 87 -97 174 -60 55 22 79 100 46 147 -9 12 -43 32 -76 44 -69 25 -85
46 -63 77 17 25 56 28 94 8 21 -12 26 -12 37 3 19 25 16 31 -22 47 -44 18
-102 18 -141 -2z"/>
<path d="M5965 1986 c-42 -18 -83 -69 -91 -112 -10 -54 1 -133 23 -162 53 -71
160 -89 230 -39 l38 27 3 -25 c3 -21 8 -25 38 -25 l34 0 0 170 0 170 -35 0
c-31 0 -35 -3 -35 -27 l0 -26 -22 20 c-13 11 -33 26 -45 32 -29 15 -101 13
-138 -3z m177 -85 c55 -62 27 -168 -50 -191 -103 -31 -189 85 -132 178 25 41
53 53 110 48 34 -3 51 -11 72 -35z"/>
<path d="M6514 1986 c-17 -8 -38 -23 -46 -35 -17 -24 -28 -18 -28 16 0 19 -5
23 -30 23 l-30 0 0 -170 0 -170 35 0 35 0 0 95 c0 112 15 157 59 179 40 21 67
20 91 -4 18 -18 20 -33 20 -145 l0 -125 35 0 35 0 0 146 0 146 -29 29 c-24 23
-38 29 -73 29 -24 -1 -57 -7 -74 -14z"/>
<path d="M6888 1980 c-96 -52 -116 -210 -37 -289 57 -57 143 -63 213 -16 l36
24 0 -24 c0 -22 4 -25 40 -25 l40 0 0 170 0 170 -34 0 c-28 0 -35 -4 -40 -26
l-7 -27 -30 29 c-39 37 -125 44 -181 14z m155 -51 c40 -21 57 -51 57 -105 0
-63 -25 -99 -79 -115 -75 -22 -141 34 -141 122 0 80 91 135 163 98z"/>
<path d="M8205 1986 c-43 -18 -93 -79 -101 -121 -9 -51 1 -114 24 -144 89
-120 291 -93 332 46 27 88 -17 186 -97 219 -41 17 -119 17 -158 0z m151 -80
c29 -29 34 -41 34 -83 0 -58 -19 -90 -67 -110 -92 -38 -182 67 -138 161 35 73
115 88 171 32z"/>
<path d="M8639 1977 c-58 -31 -89 -84 -89 -155 0 -61 17 -99 60 -136 104 -87
269 -36 300 92 38 158 -123 277 -271 199z m167 -71 c28 -28 34 -42 34 -75 0
-57 -24 -100 -67 -117 -45 -19 -83 -11 -117 25 -72 76 -24 201 77 201 31 0 46
-7 73 -34z"/>
<path d="M9171 1989 c-13 -5 -36 -18 -52 -30 l-29 -20 0 25 c0 23 -4 26 -35
26 l-35 0 0 -250 0 -250 40 0 40 0 0 101 0 101 37 -23 c79 -49 197 -18 243 63
29 51 25 152 -6 195 -48 65 -132 91 -203 62z m100 -66 c31 -19 59 -68 59 -105
0 -35 -36 -86 -74 -104 -77 -37 -156 16 -156 105 0 97 90 152 171 104z"/>
<path d="M9645 1985 c-16 -9 -38 -25 -47 -36 -16 -19 -17 -19 -20 8 -2 23 -8
29 -35 31 l-33 3 0 -170 0 -171 34 0 34 0 4 104 c3 114 16 145 71 176 24 13
30 13 55 0 l27 -16 3 -132 3 -132 39 0 40 0 0 103 c0 84 4 108 20 135 35 58
105 67 128 17 7 -15 12 -74 12 -140 l0 -115 35 0 35 0 0 135 c0 179 -17 215
-105 215 -40 0 -68 -12 -101 -42 -21 -19 -22 -19 -52 11 -25 25 -39 31 -74 31
-24 0 -56 -7 -73 -15z"/>
<path d="M10255 1986 c-42 -18 -83 -69 -91 -112 -10 -54 1 -133 23 -162 53
-71 160 -89 230 -39 l38 27 3 -25 c3 -21 8 -25 38 -25 l34 0 0 170 0 170 -35
0 c-31 0 -35 -3 -35 -27 l0 -26 -22 20 c-13 11 -33 26 -45 32 -29 15 -101 13
-138 -3z m177 -85 c55 -62 27 -168 -50 -191 -103 -31 -189 85 -132 178 25 41
53 53 110 48 34 -3 51 -11 72 -35z"/>
<path d="M10804 1986 c-17 -8 -38 -23 -46 -35 -17 -24 -28 -18 -28 16 0 19 -5
23 -30 23 l-30 0 0 -170 0 -170 35 0 35 0 0 95 c0 112 15 157 59 179 40 21 67
20 91 -4 18 -18 20 -33 20 -145 l0 -125 35 0 35 0 0 146 0 146 -29 29 c-24 23
-38 29 -73 29 -24 -1 -57 -7 -74 -14z"/>
<path d="M1784 1971 c-142 -23 -219 -62 -336 -171 -83 -77 -168 -193 -188
-257 -5 -16 -18 -51 -29 -80 l-20 -52 48 15 c87 25 333 120 466 179 238 104
631 324 627 350 -2 12 -100 22 -302 29 -123 4 -178 2 -266 -13z"/>
<path d="M1303 1867 c-23 -12 -83 -52 -135 -89 -51 -37 -146 -105 -210 -151
-64 -45 -158 -118 -208 -162 l-91 -80 6 -50 c4 -27 8 -51 9 -53 4 -3 295 62
378 85 l56 15 23 62 c41 111 165 360 197 397 49 56 43 62 -25 26z"/>
</g>
</svg>
